<svg version="1.1" id="Layer_1" xmlns="http://www.w3.org/2000/svg" xmlns:xlink="http://www.w3.org/1999/xlink" x="0px" y="0px"
	 width="100%" viewBox="0 0 420 420" enable-background="new 0 0 420 420" xml:space="preserve">
<path fill="#F0F0F0" opacity="1.000000" stroke="none" 
	d="
M278.000000,421.000000 
	C185.333344,421.000000 93.166687,421.000000 1.000025,421.000000 
	C1.000016,281.000031 1.000016,141.000061 1.000008,1.000062 
	C140.999954,1.000041 280.999908,1.000041 420.999908,1.000021 
	C420.999939,140.999939 420.999939,280.999878 420.999969,420.999908 
	C373.500000,421.000000 326.000000,421.000000 278.000000,421.000000 
M246.000000,109.500000 
	C246.000000,131.908432 246.000000,154.316849 246.000000,177.209991 
	C269.754700,177.209991 292.671204,177.209991 315.715790,177.209991 
	C315.715790,200.284836 315.715790,222.863510 315.715790,245.616028 
	C246.073578,245.616028 176.716156,245.616028 107.315552,245.616028 
	C107.315552,222.651703 107.315552,200.072754 107.315552,176.824341 
	C130.659897,176.824341 153.698227,176.824341 176.649017,176.824341 
	C176.649017,129.575455 176.649017,82.999382 176.649017,36.282440 
	C153.051941,36.282440 129.806671,36.282440 105.894852,36.282440 
	C105.894852,82.924026 105.894852,129.288208 105.894852,176.140625 
	C82.315506,176.140625 59.399208,176.140625 36.421837,176.140625 
	C36.421837,223.330872 36.421837,270.024658 36.421837,317.211517 
	C59.756226,317.211517 82.672737,317.211517 106.074532,317.211517 
	C106.074532,340.617706 106.074532,363.533508 106.074532,386.615509 
	C176.594330,386.615509 246.618362,386.615509 317.136780,386.615509 
	C317.136780,363.319427 317.136780,340.403168 317.136780,316.823425 
	C340.660797,316.823425 363.699127,316.823425 386.648560,316.823425 
	C386.648560,269.574585 386.648560,222.998520 386.648560,175.929321 
	C363.386261,175.929321 340.470306,175.929321 316.893799,175.929321 
	C316.893799,129.074875 316.893799,82.710739 316.893799,36.318390 
	C292.979156,36.318390 269.733582,36.318390 246.000000,36.318390 
	C246.000000,60.588974 246.000000,84.544487 246.000000,109.500000 
z"/>
<path fill="#B55DC6" opacity="1.000000" stroke="none" 
	d="
M246.000000,109.000000 
	C246.000000,84.544487 246.000000,60.588974 246.000000,36.318390 
	C269.733582,36.318390 292.979156,36.318390 316.893799,36.318390 
	C316.893799,82.710739 316.893799,129.074875 316.893799,175.929321 
	C340.470306,175.929321 363.386261,175.929321 386.648560,175.929321 
	C386.648560,222.998520 386.648560,269.574585 386.648560,316.823425 
	C363.699127,316.823425 340.660797,316.823425 317.136780,316.823425 
	C317.136780,340.403168 317.136780,363.319427 317.136780,386.615509 
	C246.618362,386.615509 176.594330,386.615509 106.074532,386.615509 
	C106.074532,363.533508 106.074532,340.617706 106.074532,317.211517 
	C82.672737,317.211517 59.756226,317.211517 36.421837,317.211517 
	C36.421837,270.024658 36.421837,223.330872 36.421837,176.140625 
	C59.399208,176.140625 82.315506,176.140625 105.894852,176.140625 
	C105.894852,129.288208 105.894852,82.924026 105.894852,36.282440 
	C129.806671,36.282440 153.051941,36.282440 176.649017,36.282440 
	C176.649017,82.999382 176.649017,129.575455 176.649017,176.824341 
	C153.698227,176.824341 130.659897,176.824341 107.315552,176.824341 
	C107.315552,200.072754 107.315552,222.651703 107.315552,245.616028 
	C176.716156,245.616028 246.073578,245.616028 315.715790,245.616028 
	C315.715790,222.863510 315.715790,200.284836 315.715790,177.209991 
	C292.671204,177.209991 269.754700,177.209991 246.000000,177.209991 
	C246.000000,154.316849 246.000000,131.908432 246.000000,109.000000 
z"/>
</svg>